<?xml version="1.0" encoding="utf-8"?>
<!-- Generator: Adobe Illustrator 17.1.0, SVG Export Plug-In . SVG Version: 6.00 Build 0)  -->
<!DOCTYPE svg PUBLIC "-//W3C//DTD SVG 1.1//EN" "http://www.w3.org/Graphics/SVG/1.1/DTD/svg11.dtd">
<svg version="1.1" id="图层_1" xmlns="http://www.w3.org/2000/svg" xmlns:xlink="http://www.w3.org/1999/xlink" x="0px" y="0px"
	 viewBox="0 0 210 224" enable-background="new 0 0 210 224" xml:space="preserve">
<path fill="#FFFFFF" d="M103.1,58.2c21.1,0,38.2,17.2,38.2,38.2c0,6.7-1.8,13.3-5.1,19.1l-33.1,57.3L70,115.5
	c-3.4-5.8-5.1-12.4-5.1-19.1C64.9,75.3,82.1,58.2,103.1,58.2 M103.1,111.3c8.2,0,14.9-6.7,14.9-14.9c0-8.2-6.7-14.9-14.9-14.9
	c-8.2,0-14.9,6.7-14.9,14.9C88.3,104.6,94.9,111.3,103.1,111.3 M103.1,53.9c-23.5,0-42.5,19-42.5,42.5c0,7.7,2.1,15,5.7,21.2
	l36.8,63.7l36.8-63.7c3.6-6.3,5.7-13.5,5.7-21.2C145.6,73,126.6,53.9,103.1,53.9L103.1,53.9z M103.1,107c-5.9,0-10.6-4.8-10.6-10.6
	c0-5.9,4.8-10.6,10.6-10.6c5.9,0,10.6,4.8,10.6,10.6C113.8,102.3,109,107,103.1,107L103.1,107z"/>
</svg>
