<?xml version="1.0" encoding="utf-8"?>
<!-- Generator: Adobe Illustrator 17.1.0, SVG Export Plug-In . SVG Version: 6.00 Build 0)  -->
<!DOCTYPE svg PUBLIC "-//W3C//DTD SVG 1.1//EN" "http://www.w3.org/Graphics/SVG/1.1/DTD/svg11.dtd">
<svg version="1.1" id="图层_1" xmlns="http://www.w3.org/2000/svg" xmlns:xlink="http://www.w3.org/1999/xlink" x="0px" y="0px"
	 viewBox="0 0 196 196" enable-background="new 0 0 196 196" xml:space="preserve">
<g>
	<g>
		<circle fill="#AADEEC" cx="98" cy="98" r="72"/>
	</g>
	<path fill-rule="evenodd" clip-rule="evenodd" fill="#FFFFFF" d="M75.9,94.6c-0.6-1.9-0.4-3.9,0.7-5.5c-0.1-1.2,0.1-2.7,0.9-3.6
		c-0.4-9.4,6.1-18.3,14.4-20.5c8.6-2.3,19.5,0.5,24.5,9.2c2,3.6,2.9,7.4,3.7,11.4c0.3,1.6,1.6,3,2,4.7c0.4,1.6,0,2.8-0.3,4.3
		c3.1,5.4,6.3,10.1,6.6,16.6c0.1,1.5-0.2,5.2-2,5.6c-1.8,0.4-3.2-3.3-3.8-4.5l0,0h-0.1l-0.2,0.1c-1.4,3-1.9,5.9-4.2,8.4
		c1.4,1.2,6.5,2.7,5.9,5.6c-0.6,2.8-3,3.7-5.5,4.3c-3.4,0.8-7.2,0.7-10.7,0c-1.6-0.3-3.1-0.9-4.6-1.4c-1.5-0.5-2.8-0.6-4.4-0.8
		c-2.2,2.5-6.4,3.2-9.5,3.2c-3.4,0-6.8-0.1-10.1-1.4c-2.6-1-3.4-2.5-3.3-5.3c0.1-2.7,3.1-3.2,5.1-3.5l0.1-0.1l0-0.1l-0.1-0.1
		c-3.2-1.7-5.8-6.3-6.6-9.9l-0.1,0h-0.1l0-0.1h-0.1c-0.1,0-0.1,0.1-0.2,0.1c-0.5,2-2.5,5.2-4.8,4.8l-0.1-0.2l-0.1-0.1
		C65.4,108.4,70.5,99,75.9,94.6z"/>
</g>
</svg>
