<?xml version="1.0" encoding="utf-8"?>
<!-- Generator: Adobe Illustrator 17.1.0, SVG Export Plug-In . SVG Version: 6.00 Build 0)  -->
<!DOCTYPE svg PUBLIC "-//W3C//DTD SVG 1.1//EN" "http://www.w3.org/Graphics/SVG/1.1/DTD/svg11.dtd">
<svg version="1.1" id="图层_1" xmlns="http://www.w3.org/2000/svg" xmlns:xlink="http://www.w3.org/1999/xlink" x="0px" y="0px"
	 viewBox="0 0 196 196" enable-background="new 0 0 196 196" xml:space="preserve">
<g>
	<circle fill="#FD8390" cx="98" cy="98" r="72"/>
	<g>
		<g>
			<path fill="#FFFFFF" d="M116.5,97.2c-3-0.6-1.5-2.2-1.5-2.2s2.9-4.8-0.6-8.3c-4.4-4.3-14.9,0.5-14.9,0.5c-4,1.2-3-0.6-2.4-3.6
				c0-3.6-1.3-9.8-12-6.1c-10.8,3.6-20,16.4-20,16.4c-6.4,8.5-5.6,15.1-5.6,15.1c1.6,14.5,17.1,18.5,29.2,19.4
				c12.7,1,29.9-4.3,35.1-15.3C129,102.1,119.5,97.8,116.5,97.2z M89.7,124.3c-12.6,0.6-22.8-5.7-22.8-14c0-8.4,10.2-15.1,22.8-15.6
				c12.6-0.6,22.8,4.6,22.8,12.9C112.5,115.9,102.3,123.7,89.7,124.3z M87.2,100.1c-12.7,1.5-11.2,13.3-11.2,13.3s-0.1,3.7,3.4,5.6
				c7.4,4,15.1,1.6,18.9-3.4C102.1,110.7,99.9,98.7,87.2,100.1z M84,116.7c-2.4,0.3-4.3-1.1-4.3-3c0-2,1.7-4,4.1-4.3
				c2.7-0.3,4.5,1.3,4.5,3.3C88.2,114.6,86.3,116.4,84,116.7z M91.4,110.4c-0.8,0.6-1.8,0.5-2.2-0.2c-0.4-0.7-0.3-1.8,0.5-2.4
				c0.9-0.7,1.9-0.5,2.3,0.2C92.5,108.7,92.2,109.8,91.4,110.4z M122.7,92.1c1,0,1.9-0.7,2-1.7c0-0.1,0-0.1,0-0.2
				c1.5-13.8-11.4-11.4-11.4-11.4c-1.2,0-2.1,0.9-2.1,2.1c0,1.1,0.9,2.1,2.1,2.1c9.3-2,7.3,7.2,7.3,7.2
				C120.6,91.2,121.6,92.1,122.7,92.1z M121.2,68c-4.5-1-9.1-0.1-10.4,0.1c-0.1,0-0.2,0.1-0.3,0.1c0,0-0.1,0.1-0.1,0.1
				c-1.3,0.4-2.2,1.5-2.2,2.9c0,1.6,1.3,3,3,3c0,0,1.6-0.2,2.7-0.6c1.1-0.4,10.4-0.3,15,7.4c2.5,5.6,1.1,9.4,0.9,10
				c0,0-0.6,1.5-0.6,2.9c0,1.7,1.3,2.7,3,2.7c1.4,0,2.6-0.2,2.9-2.5h0C140.2,77.5,129.2,69.8,121.2,68z"/>
		</g>
	</g>
</g>
</svg>
