<?xml version="1.0" encoding="utf-8"?>
<!-- Generator: Adobe Illustrator 17.1.0, SVG Export Plug-In . SVG Version: 6.00 Build 0)  -->
<!DOCTYPE svg PUBLIC "-//W3C//DTD SVG 1.1//EN" "http://www.w3.org/Graphics/SVG/1.1/DTD/svg11.dtd">
<svg version="1.1" id="图层_1" xmlns="http://www.w3.org/2000/svg" xmlns:xlink="http://www.w3.org/1999/xlink" x="0px" y="0px"
	 viewBox="0 0 196 196" enable-background="new 0 0 196 196" xml:space="preserve">
<g>
	<circle fill="#8FD678" cx="98" cy="98" r="72"/>
	<g>
		<g>
			<path fill-rule="evenodd" clip-rule="evenodd" fill="#FFFFFF" d="M113.4,84c1,0,2,0.1,3,0.2c-2.7-12.4-15.9-21.7-31.1-21.7
				c-16.9,0-30.8,11.6-30.8,26.2c0,8.5,4.6,15.4,12.3,20.8l-3.1,9.3l10.8-5.4c3.8,0.8,6.9,1.5,10.8,1.5c1,0,1.9,0,2.9-0.1
				c-0.6-2.1-0.9-4.2-0.9-6.5C87.2,94.9,98.8,84,113.4,84z M96.8,75.6c2.3,0,3.9,1.5,3.9,3.8c0,2.3-1.5,3.9-3.9,3.9
				c-2.3,0-4.6-1.5-4.6-3.9C92.2,77.2,94.5,75.6,96.8,75.6z M75.3,83.3c-2.3,0-4.6-1.5-4.6-3.9c0-2.3,2.3-3.8,4.6-3.8
				c2.3,0,3.8,1.5,3.8,3.8C79.1,81.8,77.6,83.3,75.3,83.3z M141.5,108c0-12.3-12.3-22.4-26.1-22.4c-14.6,0-26.2,10-26.2,22.4
				c0,12.3,11.5,22.4,26.2,22.4c3.1,0,6.2-0.8,9.2-1.5l8.4,4.6l-2.3-7.7C136.9,121.1,141.5,115,141.5,108z M106.8,104.2
				c-1.5,0-3.1-1.5-3.1-3.1c0-1.5,1.5-3.1,3.1-3.1c2.3,0,3.9,1.5,3.9,3.1C110.7,102.6,109.2,104.2,106.8,104.2z M123.8,104.2
				c-1.5,0-3.1-1.5-3.1-3.1c0-1.5,1.5-3.1,3.1-3.1c2.3,0,3.9,1.5,3.9,3.1C127.6,102.6,126.1,104.2,123.8,104.2z"/>
		</g>
	</g>
</g>
</svg>
